<svg width="227" height="37" viewBox="0 0 227 37" fill="none" xmlns="http://www.w3.org/2000/svg">
<path d="M204.344 28.2759V8H211.869C213.284 8 214.504 8.24948 215.53 8.74844C216.564 9.2474 217.358 9.95955 217.911 10.8849C218.473 11.8012 218.755 12.8898 218.755 14.1508C218.755 15.4118 218.455 16.505 217.856 17.4303C217.267 18.3557 216.441 19.0678 215.38 19.5668C214.318 20.0658 213.085 20.3152 211.678 20.3152H205.705V18.138H211.815C212.749 18.138 213.552 17.9792 214.223 17.6617C214.904 17.3351 215.425 16.8724 215.788 16.2737C216.151 15.6749 216.332 14.9673 216.332 14.1508C216.332 13.3253 216.146 12.6176 215.774 12.028C215.412 11.4383 214.89 10.9847 214.21 10.6672C213.538 10.3406 212.731 10.1773 211.787 10.1773H206.793V28.2759H204.344ZM216.142 28.2759L211.243 19.1586H214.019L219 28.2759H216.142Z" fill="#156A46"/>
<path d="M197.277 10.1777H193.889V18.9814H186.541V26.0986H197.277V28.2764H184.092V8H197.277V10.1777Z" fill="#156A46"/>
<path d="M167.539 28.2759L159.207 8H161.793C162.028 8.66226 168.548 24.2993 168.911 25.4152C169.283 26.522 168.755 25.391 169.308 27.0784H168.628C169.163 25.391 168.454 26.7542 168.826 25.6474C169.198 24.5316 175.781 8.66226 176.008 8H178.566L170.315 28.2759H167.539Z" fill="#156A46"/>
<path d="M152.85 8V28.2759H150.4V8H152.85Z" fill="#156A46"/>
<path d="M135.406 8C136.821 8.00005 138.041 8.24918 139.066 8.74805C140.101 9.24701 140.895 9.95942 141.448 10.8848C142.011 11.8009 142.291 12.8896 142.291 14.1504C142.291 15.4114 141.992 16.5053 141.394 17.4307C140.804 18.3558 139.978 19.0675 138.917 19.5664C138.617 19.7073 138.303 19.8257 137.976 19.9268L142.536 28.2764H139.679L135.399 20.3105C135.338 20.3115 135.277 20.3154 135.215 20.3154H130.33V28.2764H127.881V8H135.406ZM134.17 18.1377H135.352C136.286 18.1377 137.089 17.9795 137.76 17.6621C138.44 17.3355 138.962 16.8722 139.325 16.2734C139.688 15.6747 139.869 14.9667 139.869 14.1504C139.869 13.3252 139.683 12.6178 139.312 12.0283C138.949 11.4386 138.426 10.9845 137.746 10.667C137.075 10.3405 136.268 10.1777 135.324 10.1777H134.17V18.1377Z" fill="#156A46"/>
<path d="M103.848 17.5752L110.681 8.08105H113.229L105.094 19.5771V28.2783H102.655V19.5791L94.5215 8.08105H97.0693L103.848 17.5752Z" fill="#156A46"/>
<path d="M79.6475 8.01074C85.4307 8.01074 90.1191 12.6992 90.1191 18.4824C90.1191 24.2657 85.4307 28.9541 79.6475 28.9541C73.8643 28.954 69.1758 24.2656 69.1758 18.4824C69.1759 12.6993 73.8643 8.01083 79.6475 8.01074ZM79.6475 10.3848C75.1755 10.3849 71.5499 14.0105 71.5498 18.4824C71.5498 22.9544 75.1755 26.58 79.6475 26.5801C84.1195 26.5801 87.7451 22.9545 87.7451 18.4824C87.745 14.0104 84.1195 10.3848 79.6475 10.3848Z" fill="#156A46"/>
<path d="M52.1973 28.2759V8H54.6467V26.0986H64.4172V28.2759H52.1973Z" fill="#156A46"/>
<path d="M32.7988 28.2759V8H35.2483V26.0986H45.0188V28.2759H32.7988Z" fill="#156A46"/>
<path d="M25.6631 28.2754H8L15.4844 8H18.2607L25.6631 28.2754ZM16.8711 10.3018C16.49 11.4905 16.1656 12.4888 15.8926 13.2939C15.5479 14.3278 15.2307 15.2484 14.9404 16.0557L13.3789 20.4102H20.3086L18.791 16.0557C18.5099 15.2484 18.1926 14.3278 17.8389 13.2939C17.5728 12.4887 17.2507 11.4908 16.8711 10.3018Z" fill="#156A46"/>
</svg>
