<svg viewBox="0 0 1200 740" xmlns="http://www.w3.org/2000/svg" font-family="Inter, Arial, sans-serif">
  <rect width="1200" height="740" fill="#F7F5EF"/>
  <!-- sidebar -->
  <rect width="220" height="740" fill="#1A1D21"/>
  <g transform="translate(28,40)">
    <polygon points="0,18 16,18 8,0" fill="#FFFCEA"/>
    <text x="26" y="15" fill="#FFFCEA" font-size="15" font-weight="700">Alloy River</text>
  </g>
  <g font-size="14" fill="#8A877B">
    <text x="32" y="109">Overview</text>
    <text x="32" y="161">Cash flow</text>
    <rect x="16" y="180" width="188" height="40" rx="9" fill="#156A46" fill-opacity="0.22"/>
    <text x="32" y="205" fill="#F7F5EF" font-weight="600">Profit &amp; Loss</text>
    <text x="32" y="249">Invoices</text>
    <text x="32" y="293">Clients</text>
    <text x="32" y="337">Reports</text>
  </g>
  <text x="32" y="700" fill="#595C62" font-size="12">Northwind Bookkeeping</text>
  <!-- top -->
  <text x="260" y="64" fill="#1A1D21" font-size="30" font-weight="700">Profit &amp; Loss</text>
  <text x="260" y="92" fill="#8A877B" font-size="14">Accrual basis · Q2 2026</text>
  <rect x="980" y="44" width="180" height="34" rx="8" fill="#FFFCEA" stroke="#1A1D21" stroke-opacity="0.14"/>
  <text x="1000" y="66" fill="#595C62" font-size="13" font-family="Geist Mono, monospace">Apr – Jun 2026 ▾</text>
  <!-- statement card -->
  <g transform="translate(260,128)">
    <rect width="900" height="536" rx="12" fill="#FFFFFF" stroke="#1A1D21" stroke-opacity="0.12"/>
    <!-- header row -->
    <g font-family="Geist Mono, monospace" font-size="12" fill="#8A877B">
      <text x="32" y="48">ACCOUNT</text>
      <text x="560" y="48" text-anchor="end">APR</text>
      <text x="680" y="48" text-anchor="end">MAY</text>
      <text x="800" y="48" text-anchor="end">JUN</text>
      <text x="868" y="48" text-anchor="end">TOTAL</text>
    </g>
    <line x1="32" y1="64" x2="868" y2="64" stroke="#1A1D21" stroke-opacity="0.12"/>
    <!-- rows -->
    <g font-size="15">
      <!-- Revenue -->
      <text x="32" y="104" fill="#1A1D21" font-weight="600">Revenue</text>
      <g font-family="Geist Mono, monospace" fill="#1A1D21" font-weight="600">
        <text x="560" y="104" text-anchor="end">152,400</text>
        <text x="680" y="104" text-anchor="end">158,900</text>
        <text x="800" y="104" text-anchor="end">170,200</text>
        <text x="868" y="104" text-anchor="end">481,500</text>
      </g>
      <!-- COGS -->
      <text x="44" y="142" fill="#595C62">Cost of services</text>
      <g font-family="Geist Mono, monospace" fill="#595C62">
        <text x="560" y="142" text-anchor="end">(58,100)</text>
        <text x="680" y="142" text-anchor="end">(59,800)</text>
        <text x="800" y="142" text-anchor="end">(62,400)</text>
        <text x="868" y="142" text-anchor="end">(180,300)</text>
      </g>
      <line x1="32" y1="160" x2="868" y2="160" stroke="#1A1D21" stroke-opacity="0.08"/>
      <!-- Gross profit -->
      <text x="32" y="196" fill="#1A1D21" font-weight="600">Gross profit</text>
      <g font-family="Geist Mono, monospace" fill="#1A1D21" font-weight="600">
        <text x="560" y="196" text-anchor="end">94,300</text>
        <text x="680" y="196" text-anchor="end">99,100</text>
        <text x="800" y="196" text-anchor="end">107,800</text>
        <text x="868" y="196" text-anchor="end">301,200</text>
      </g>
      <!-- Opex header -->
      <text x="32" y="240" fill="#1A1D21" font-weight="600">Operating expenses</text>
      <text x="44" y="276" fill="#595C62">Salaries &amp; wages</text>
      <g font-family="Geist Mono, monospace" fill="#595C62">
        <text x="560" y="276" text-anchor="end">(48,000)</text>
        <text x="680" y="276" text-anchor="end">(48,000)</text>
        <text x="800" y="276" text-anchor="end">(50,500)</text>
        <text x="868" y="276" text-anchor="end">(146,500)</text>
      </g>
      <text x="44" y="310" fill="#595C62">Software &amp; tools</text>
      <g font-family="Geist Mono, monospace" fill="#595C62">
        <text x="560" y="310" text-anchor="end">(6,200)</text>
        <text x="680" y="310" text-anchor="end">(6,200)</text>
        <text x="800" y="310" text-anchor="end">(6,400)</text>
        <text x="868" y="310" text-anchor="end">(18,800)</text>
      </g>
      <text x="44" y="344" fill="#595C62">Marketing</text>
      <g font-family="Geist Mono, monospace" fill="#595C62">
        <text x="560" y="344" text-anchor="end">(9,100)</text>
        <text x="680" y="344" text-anchor="end">(11,300)</text>
        <text x="800" y="344" text-anchor="end">(10,700)</text>
        <text x="868" y="344" text-anchor="end">(31,100)</text>
      </g>
      <text x="44" y="378" fill="#595C62">General &amp; admin</text>
      <g font-family="Geist Mono, monospace" fill="#595C62">
        <text x="560" y="378" text-anchor="end">(7,400)</text>
        <text x="680" y="378" text-anchor="end">(7,600)</text>
        <text x="800" y="378" text-anchor="end">(7,900)</text>
        <text x="868" y="378" text-anchor="end">(22,900)</text>
      </g>
      <line x1="32" y1="398" x2="868" y2="398" stroke="#1A1D21" stroke-opacity="0.08"/>
      <!-- Net income -->
      <rect x="20" y="420" width="860" height="46" rx="8" fill="#156A46" fill-opacity="0.10"/>
      <text x="32" y="450" fill="#1A1D21" font-weight="700">Net income</text>
      <g font-family="Geist Mono, monospace" fill="#1A1D21" font-weight="700">
        <text x="560" y="450" text-anchor="end">23,600</text>
        <text x="680" y="450" text-anchor="end">26,000</text>
        <text x="800" y="450" text-anchor="end">32,400</text>
        <text x="868" y="450" text-anchor="end">82,000</text>
      </g>
      <text x="32" y="500" fill="#156A46" font-size="13">Net margin 17.0% · up from 14.8% in Q1</text>
    </g>
  </g>
</svg>
